<svg width="41" height="40" viewBox="0 0 41 40" fill="none" xmlns="http://www.w3.org/2000/svg">
<path d="M10.312 39.8585C7.89354 39.7503 6.57976 39.3545 5.70593 39.0192C4.54806 38.5758 3.72257 38.048 2.85357 37.1944C1.98457 36.3408 1.44673 35.5289 0.998326 34.39C0.657493 33.5305 0.25502 32.2382 0.145035 29.8594C0.0241725 27.288 0 26.5165 0 20.0018C0 13.4871 0.0265898 12.7167 0.143827 10.143C0.253812 7.76414 0.658702 6.47428 0.997117 5.61239C1.44793 4.4735 1.98577 3.66154 2.85236 2.8056C3.72015 1.95203 4.54565 1.42182 5.70472 0.980771C6.57856 0.645526 7.89233 0.249651 10.3108 0.141469C12.9263 0.0237763 13.7119 0 20.3327 0C26.956 0 27.7392 0.0261539 30.3559 0.141469C32.7743 0.249651 34.0857 0.647903 34.9619 0.980771C36.1198 1.42182 36.9453 1.95203 37.8143 2.8056C38.6833 3.65917 39.2187 4.47232 39.6695 5.6112C40.0104 6.47071 40.4129 7.76295 40.5228 10.1418C40.6425 12.7155 40.6667 13.4859 40.6667 20.0006C40.6667 26.5129 40.6425 27.2856 40.5228 29.8594C40.4129 32.2382 40.008 33.5305 39.6695 34.39C39.2187 35.5289 38.6821 36.3408 37.8143 37.1944C36.9465 38.048 36.1198 38.5758 34.9619 39.0192C34.0881 39.3545 32.7743 39.7503 30.3559 39.8585C27.7416 39.9762 26.956 40 20.3327 40C13.7119 40 12.9263 39.9774 10.312 39.8585Z" fill="url(#paint0_radial_77_1002)"/>
<path d="M10.312 39.8585C7.89354 39.7504 6.57976 39.3545 5.70593 39.0192C4.54806 38.5758 3.72257 38.048 2.85357 37.1944C1.98457 36.3408 1.44673 35.5289 0.998326 34.39C0.657493 33.5305 0.25502 32.2382 0.145035 29.8594C0.0241725 27.288 0 26.5165 0 20.0018C0 13.4871 0.0265898 12.7167 0.143827 10.143C0.253812 7.76414 0.658702 6.47428 0.997117 5.61239C1.44794 4.4735 1.98577 3.66154 2.85236 2.8056C3.72015 1.95203 4.54565 1.42182 5.70472 0.980771C6.57856 0.645526 7.89233 0.249651 10.3108 0.141469C12.9263 0.0237763 13.7119 0 20.3327 0C26.956 0 27.7392 0.0261539 30.3559 0.141469C32.7743 0.249651 34.0857 0.647903 34.962 0.980771C36.1198 1.42182 36.9453 1.95203 37.8143 2.8056C38.6833 3.65917 39.2187 4.47232 39.6696 5.6112C40.0104 6.47071 40.4129 7.76295 40.5228 10.1418C40.6425 12.7155 40.6667 13.4859 40.6667 20.0006C40.6667 26.5129 40.6425 27.2856 40.5228 29.8594C40.4129 32.2382 40.008 33.5305 39.6696 34.39C39.2187 35.5289 38.6821 36.3408 37.8143 37.1944C36.9465 38.048 36.1198 38.5758 34.962 39.0192C34.0881 39.3545 32.7743 39.7504 30.3559 39.8585C27.7416 39.9762 26.956 40 20.3327 40C13.7119 40 12.9263 39.9774 10.312 39.8585Z" fill="url(#paint1_radial_77_1002)"/>
<path d="M15.3347 19.9999C15.3347 17.3 17.5727 15.1107 20.3341 15.1107C23.0955 15.1107 25.3347 17.3 25.3347 19.9999C25.3347 22.6999 23.0955 24.8892 20.3341 24.8892C17.5727 24.8892 15.3347 22.6999 15.3347 19.9999ZM12.6315 19.9999C12.6315 24.1594 16.0799 27.5311 20.3341 27.5311C24.5883 27.5311 28.0367 24.1594 28.0367 19.9999C28.0367 15.8405 24.5883 12.4688 20.3341 12.4688C16.0799 12.4688 12.6316 15.8402 12.6316 19.9999M26.5417 12.1702C26.5416 12.5183 26.647 12.8586 26.8447 13.1481C27.0424 13.4376 27.3234 13.6633 27.6523 13.7966C27.9811 13.93 28.343 13.965 28.6923 13.8972C29.0415 13.8294 29.3623 13.6619 29.6141 13.4159C29.866 13.1698 30.0375 12.8563 30.1071 12.5149C30.1767 12.1736 30.1412 11.8197 30.0051 11.498C29.869 11.1764 29.6384 10.9014 29.3424 10.7079C29.0465 10.5144 28.6985 10.411 28.3425 10.4109H28.3418C27.8646 10.4111 27.4069 10.5965 27.0694 10.9264C26.7319 11.2562 26.5421 11.7036 26.5417 12.1702ZM14.2739 31.9384C12.8114 31.8733 12.0164 31.6351 11.4882 31.4338C10.7878 31.1673 10.2881 30.8498 9.76275 30.3368C9.23737 29.8238 8.91216 29.3357 8.64071 28.6509C8.43478 28.1347 8.19117 27.3572 8.12469 25.9273C8.05197 24.3813 8.03744 23.9169 8.03744 20.0002C8.03744 16.0835 8.05317 15.6204 8.12469 14.0731C8.19129 12.6431 8.4367 11.8672 8.64071 11.3494C8.91336 10.6647 9.23809 10.1761 9.76275 9.66241C10.2874 9.14873 10.7866 8.83075 11.4882 8.56535C12.0162 8.364 12.8114 8.12582 14.2739 8.06081C15.855 7.98971 16.33 7.97551 20.3341 7.97551C24.3382 7.97551 24.8136 7.99065 26.3961 8.06105C27.8586 8.12617 28.6522 8.36611 29.1818 8.56558C29.8822 8.83099 30.3819 9.14967 30.9072 9.66265C31.4326 10.1756 31.7566 10.6649 32.0293 11.3497C32.2352 11.8659 32.4788 12.6434 32.5453 14.0733C32.618 15.6206 32.6325 16.0837 32.6325 20.0004C32.6325 23.9171 32.618 24.3802 32.5453 25.9275C32.4787 27.3575 32.2339 28.1347 32.0293 28.6512C31.7566 29.3359 31.4319 29.8245 30.9072 30.337C30.3826 30.8495 29.8822 31.1675 29.1818 31.4341C28.6538 31.6354 27.8586 31.8736 26.3961 31.9386C24.815 32.0097 24.34 32.0239 20.3341 32.0239C16.3282 32.0239 15.8546 32.0097 14.2739 31.9386M14.1497 5.4221C12.5527 5.49321 11.4615 5.74078 10.5086 6.10334C9.52226 6.47775 8.68619 6.98006 7.85132 7.79505C7.01644 8.61005 6.50402 9.42763 6.12109 10.3932C5.75027 11.3255 5.49706 12.3918 5.42434 13.9532C5.35042 15.517 5.3335 16.017 5.3335 19.9999C5.3335 23.9829 5.35042 24.4829 5.42434 26.0467C5.49706 27.6082 5.75027 28.6744 6.12109 29.6067C6.50402 30.5711 7.01656 31.3902 7.85132 32.2048C8.68607 33.0195 9.52106 33.5211 10.5086 33.8966C11.4633 34.2591 12.5527 34.5067 14.1497 34.5778C15.7499 34.6489 16.2604 34.6666 20.3341 34.6666C24.4078 34.6666 24.9191 34.6501 26.5185 34.5778C28.1156 34.5067 29.2061 34.2591 30.1596 33.8966C31.1459 33.5211 31.982 33.0198 32.8169 32.2048C33.6518 31.3898 34.1631 30.5711 34.5471 29.6067C34.9179 28.6744 35.1723 27.6081 35.2439 26.0467C35.3166 24.4817 35.3335 23.9829 35.3335 19.9999C35.3335 16.017 35.3166 15.517 35.2439 13.9532C35.1711 12.3917 34.9179 11.3249 34.5471 10.3932C34.1631 9.4288 33.6504 8.61134 32.8169 7.79505C31.9833 6.97877 31.1459 6.47775 30.1608 6.10334C29.2061 5.74078 28.1155 5.49203 26.5197 5.4221C24.9201 5.35065 24.409 5.33328 20.3359 5.33328C16.2628 5.33328 15.7505 5.34983 14.1503 5.4221" fill="white"/>
<defs>
<radialGradient id="paint0_radial_77_1002" cx="0" cy="0" r="1" gradientUnits="userSpaceOnUse" gradientTransform="translate(2.63191 39.1237) scale(51.6316 50.7852)">
<stop offset="0.09" stop-color="#FA8F21"/>
<stop offset="0.78" stop-color="#D82D7E"/>
</radialGradient>
<radialGradient id="paint1_radial_77_1002" cx="0" cy="0" r="1" gradientUnits="userSpaceOnUse" gradientTransform="translate(28.1684 37.8393) scale(45.4363 44.6914)">
<stop offset="0.64" stop-color="#8C3AAA" stop-opacity="0"/>
<stop offset="1" stop-color="#8C3AAA"/>
</radialGradient>
</defs>
</svg>
