<svg width="40" height="40" viewBox="0 0 40 40" fill="none" xmlns="http://www.w3.org/2000/svg">
<path fill-rule="evenodd" clip-rule="evenodd" d="M20.0012 0C8.95631 0 0 8.95395 0 20.0012C0 28.1884 4.92504 35.2255 11.9739 38.3183C11.9175 36.9236 11.9645 35.2443 12.3196 33.7249C12.7054 32.1021 14.8927 22.8282 14.8927 22.8282C14.8927 22.8282 14.2553 21.5511 14.2553 19.6625C14.2553 16.699 15.9746 14.4858 18.1125 14.4858C19.9306 14.4858 20.8103 15.8523 20.8103 17.4893C20.8103 19.3167 19.6437 22.0521 19.0439 24.5852C18.543 26.709 20.107 28.4377 22.2003 28.4377C25.9893 28.4377 28.5412 23.5715 28.5412 17.8044C28.5412 13.4227 25.5895 10.1417 20.2199 10.1417C14.1542 10.1417 10.3746 14.6646 10.3746 19.7166C10.3746 21.4618 10.8873 22.6895 11.6917 23.6397C12.0633 24.0795 12.1127 24.2536 11.9786 24.7569C11.8845 25.1214 11.6634 26.0105 11.5717 26.3609C11.4376 26.8666 11.0284 27.05 10.5721 26.8619C7.77563 25.7212 6.47499 22.6613 6.47499 19.2203C6.47499 13.5403 11.266 6.72429 20.7679 6.72429C28.4048 6.72429 33.4309 12.2538 33.4309 18.1831C33.4309 26.0293 29.0704 31.8904 22.6377 31.8904C20.481 31.8904 18.4489 30.7238 17.7527 29.3997C17.7527 29.3997 16.5908 34.0072 16.3462 34.8962C15.9229 36.4368 15.0926 37.9796 14.3329 39.1792C16.1322 39.7107 18.0326 40 20.0012 40C31.046 40 40 31.046 40 20.0012C40 8.95395 31.046 0 20.0012 0Z" fill="#CC2127"/>
</svg>
