<svg width="25" height="24" viewBox="0 0 25 24" fill="none" xmlns="http://www.w3.org/2000/svg">
<path d="M12.7061 3.54013C14.3514 2.48819 16.3649 2.21883 18.2208 2.80282C19.8349 3.30484 21.1774 4.45822 21.9356 5.99423C22.822 7.85578 22.9424 10.0007 22.2706 11.9532C21.652 13.7509 20.6378 15.381 19.3057 16.7179C18.4324 17.6154 17.4914 18.4418 16.4913 19.1895L16.4386 19.2345C16.1064 19.4581 15.6595 19.3705 15.4327 19.0372C15.3174 18.8761 15.2706 18.6741 15.3038 18.4776C15.337 18.2813 15.447 18.1067 15.6085 17.9942C16.547 17.2871 17.4323 16.5088 18.2559 15.6661C19.4421 14.4988 20.3484 13.0686 20.9034 11.4864C21.4372 9.90983 21.3284 8.18052 20.6026 6.68564C20.0186 5.50991 18.9897 4.62748 17.753 4.2413C16.1754 3.73872 14.4561 4.04277 13.1378 5.05868C12.8757 5.25635 12.518 5.25643 12.2559 5.05868C10.9382 4.04141 9.21822 3.7372 7.6407 4.2413C6.39578 4.61903 5.35663 5.49888 4.76472 6.67685C4.05532 8.17061 3.95397 9.88945 4.4825 11.4591C5.03982 13.0374 5.94501 14.4644 7.12898 15.63C8.87858 17.339 10.8079 18.847 12.8819 20.1251C13.1456 20.3114 13.2622 20.6489 13.17 20.962C13.0776 21.2752 12.7975 21.4927 12.4766 21.5001C12.332 21.501 12.1901 21.4569 12.0704 21.3741C9.90992 20.0429 7.90053 18.4719 6.07918 16.6905C4.73988 15.3581 3.72177 13.7276 3.10555 11.9268C2.45676 9.97687 2.59052 7.84472 3.47664 5.99423C4.23492 4.45816 5.57729 3.30481 7.19148 2.80282C9.04732 2.21894 11.061 2.48822 12.7061 3.54013ZM16.588 6.49716C17.9036 6.92028 18.8406 8.10878 18.962 9.50888C18.9868 9.70452 18.9329 9.90235 18.8136 10.0577C18.6941 10.2129 18.5186 10.3136 18.3262 10.336C17.9223 10.389 17.5521 10.0997 17.4971 9.68857C17.4603 8.85785 16.9167 8.13934 16.1378 7.89072C15.8483 7.70647 15.7196 7.34406 15.8262 7.01376C15.933 6.68351 16.2477 6.47033 16.588 6.49716Z" fill="#484C52"/>
</svg>
