<svg width="23" height="22" viewBox="0 0 23 22" fill="none" xmlns="http://www.w3.org/2000/svg">
<path d="M11.2997 7.8421C9.55564 7.8421 8.14185 6.42826 8.14185 4.6842C8.14185 2.94015 9.55564 1.52631 11.2997 1.52631C13.0438 1.52631 14.4576 2.94015 14.4576 4.6842C14.4576 6.42826 13.0438 7.8421 11.2997 7.8421Z" stroke="#484C52" stroke-width="1.5"/>
<path d="M4.4577 20.4737C2.71365 20.4737 1.2998 19.0599 1.2998 17.3158C1.2998 15.5717 2.71365 14.1579 4.4577 14.1579C6.20175 14.1579 7.6156 15.5717 7.6156 17.3158C7.6156 19.0599 6.20175 20.4737 4.4577 20.4737Z" stroke="#484C52" stroke-width="1.5"/>
<path d="M18.142 20.4737C16.3979 20.4737 14.9841 19.0599 14.9841 17.3158C14.9841 15.5717 16.3979 14.1579 18.142 14.1579C19.8861 14.1579 21.2999 15.5717 21.2999 17.3158C21.2999 19.0599 19.8861 20.4737 18.142 20.4737Z" stroke="#484C52" stroke-width="1.5"/>
<path d="M19.7208 12.0526C19.7208 9.53739 18.6181 7.2798 16.8698 5.73676M2.87866 12.0526C2.87866 9.53739 3.98132 7.2798 5.72959 5.73676M9.19445 20.2084C9.86729 20.3815 10.5728 20.4736 11.2997 20.4736C12.0267 20.4736 12.7321 20.3815 13.405 20.2084" stroke="#484C52" stroke-width="1.5" stroke-linecap="round"/>
</svg>
