<svg width="16" height="16" viewBox="0 0 16 16" fill="none" xmlns="http://www.w3.org/2000/svg">
<g clip-path="url(#clip0_32_713)">
<path d="M6.13662 9.88883C7.57171 11.3134 9.2328 12.6743 9.88493 12.0171C10.8187 11.0766 11.3934 10.2583 13.4654 11.9107C15.5374 13.5639 13.9549 14.6765 13.0506 15.5879C12.007 16.6394 8.09825 15.6616 4.22385 11.8166C0.349679 7.97077 -0.657973 4.06965 0.386389 3.01765C1.29101 2.10621 2.39174 0.515914 4.05939 2.57583C5.72785 4.63471 4.91392 5.21573 3.98019 6.15656C3.32837 6.81339 4.7013 8.46399 6.13662 9.88883ZM8.21755 3.09265C8.21755 3.09265 7.78464 3.02502 7.48152 3.32837C7.16949 3.6404 7.15588 4.17793 7.48468 4.50646C7.67899 4.70076 7.95299 4.74218 7.95299 4.74218C8.48713 4.84235 9.29211 5.01198 10.1488 5.86836C11.0051 6.7247 11.1748 7.52968 11.2749 8.06409C11.2749 8.06409 11.3164 8.33809 11.5107 8.5324C11.8392 8.86097 12.3767 8.84759 12.6887 8.53556C12.9919 8.23248 12.9245 7.79956 12.9245 7.79956C12.7548 6.71768 12.2304 5.58757 11.33 4.68715C10.4293 3.78673 9.29913 3.26255 8.21755 3.09265ZM12.2784 3.73873C13.8485 5.30885 14.5179 7.09083 14.3 8.53479C14.3 8.53479 14.2239 8.99207 14.5226 9.29072C14.8588 9.62689 15.3915 9.60749 15.7062 9.29311C15.9084 9.09094 15.9524 8.76187 15.9524 8.76187C16.1325 7.51403 15.906 5.00365 13.4596 2.55752C11.0132 0.111341 8.50309 -0.115199 7.25521 0.0646838C7.25521 0.0646838 6.92641 0.108488 6.72397 0.31089C6.40932 0.62554 6.39019 1.15836 6.72632 1.49449C7.02501 1.79318 7.48225 1.7171 7.48225 1.7171C8.92629 1.4992 10.7082 2.16864 12.2784 3.73873Z" fill="#9095A6"/>
</g>
<defs>
<clipPath id="clip0_32_713">
<rect width="16" height="16" fill="white" transform="translate(0.000244141)"/>
</clipPath>
</defs>
</svg>
