<svg width="20" height="20" viewBox="0 0 20 20" fill="none" xmlns="http://www.w3.org/2000/svg">
<path d="M3.33366 16.6667C2.87533 16.6667 2.4831 16.5037 2.15699 16.1775C1.83088 15.8514 1.66755 15.4589 1.66699 15V5.00004C1.66699 4.54171 1.83033 4.14948 2.15699 3.82337C2.48366 3.49726 2.87588 3.33393 3.33366 3.33337H16.667C17.1253 3.33337 17.5178 3.49671 17.8445 3.82337C18.1712 4.15004 18.3342 4.54226 18.3337 5.00004V15C18.3337 15.4584 18.1706 15.8509 17.8445 16.1775C17.5184 16.5042 17.1259 16.6673 16.667 16.6667H3.33366ZM10.0003 10.8334L3.33366 6.66671V15H16.667V6.66671L10.0003 10.8334ZM10.0003 9.16671L16.667 5.00004H3.33366L10.0003 9.16671ZM3.33366 6.66671V5.00004V15V6.66671Z" fill="#9095A6"/>
</svg>
