<svg width="16" height="16" viewBox="0 0 16 16" fill="none" xmlns="http://www.w3.org/2000/svg">
<g clip-path="url(#clip0_32_701)">
<path d="M15.4287 7.99998C15.4287 9.97016 14.646 11.8596 13.2529 13.2528C11.8598 14.6459 9.97028 15.4286 8.0001 15.4286C6.02992 15.4286 4.14044 14.6459 2.74731 13.2528C1.35418 11.8596 0.571533 9.97016 0.571533 7.99998M15.4287 7.99998C15.4287 6.0298 14.646 4.14032 13.2529 2.74719C11.8598 1.35406 9.97028 0.571411 8.0001 0.571411C6.02992 0.571411 4.14044 1.35406 2.74731 2.74719C1.35418 4.14032 0.571533 6.0298 0.571533 7.99998M15.4287 7.99998H0.571533" stroke="#9095A6" stroke-width="1.5" stroke-linecap="round" stroke-linejoin="round"/>
<path d="M10.8574 7.99998C10.717 10.7165 9.71641 13.3181 8.00021 15.4286C6.284 13.3181 5.28341 10.7165 5.14307 7.99998C5.28341 5.28342 6.284 2.68187 8.00021 0.571411C9.71641 2.68187 10.717 5.28342 10.8574 7.99998Z" stroke="#9095A6" stroke-width="1.5" stroke-linecap="round" stroke-linejoin="round"/>
</g>
<defs>
<clipPath id="clip0_32_701">
<rect width="16" height="16" fill="white"/>
</clipPath>
</defs>
</svg>
