<svg width="25" height="24" viewBox="0 0 25 24" fill="none" xmlns="http://www.w3.org/2000/svg">
<path d="M2.19409 22L3.60561 16.8691C2.73831 15.3639 2.28285 13.6568 2.28508 11.9196C2.27504 6.44549 6.72053 2 12.184 2C14.8357 2 17.3256 3.02806 19.2003 4.9034C20.1243 5.82266 20.8568 6.91616 21.3552 8.12054C21.8536 9.32492 22.108 10.6162 22.1037 11.9196C22.1037 17.3832 17.6582 21.8287 12.1941 21.8287C10.5309 21.8287 8.90783 21.4151 7.45613 20.6192L2.19409 22ZM7.68833 18.8349L7.99084 19.0162C9.26059 19.7676 10.7087 20.1644 12.184 20.1654C16.7205 20.1654 20.4204 16.4662 20.4204 11.9291C20.4204 9.73176 19.5637 7.65554 18.0109 6.1034C17.2474 5.33553 16.3394 4.72636 15.3394 4.31101C14.3393 3.89565 13.2669 3.68232 12.184 3.68331C7.63752 3.6839 3.93885 7.38316 3.93885 11.9202C3.93885 13.4724 4.37253 14.995 5.19911 16.3055L5.39055 16.618L4.55391 19.662L7.68892 18.8354L7.68833 18.8349Z" fill="white"/>
<path fill-rule="evenodd" clip-rule="evenodd" d="M9.71433 7.76662C9.53294 7.35303 9.33146 7.34298 9.16012 7.34298C9.00886 7.33294 8.84697 7.33294 8.67563 7.33294C8.51492 7.33294 8.24254 7.39321 8.01093 7.64549C7.77873 7.89719 7.14417 8.49217 7.14417 9.71167C7.14417 10.9318 8.03102 12.1111 8.15214 12.2724C8.27267 12.4337 9.86558 15.0139 12.3861 16.0124C14.4824 16.839 14.9061 16.6777 15.3598 16.6269C15.813 16.5767 16.8216 16.0325 17.0331 15.4476C17.2346 14.8733 17.2346 14.3693 17.1743 14.2682C17.114 14.1678 16.9421 14.1069 16.7004 13.9758C16.4482 13.8552 15.2387 13.2502 15.0071 13.1693C14.7749 13.0889 14.6136 13.0487 14.4523 13.2904C14.291 13.5427 13.8171 14.0969 13.6665 14.2582C13.5247 14.4195 13.374 14.4396 13.1318 14.3185C12.8801 14.1979 12.0836 13.9356 11.1359 13.0889C10.3997 12.4331 9.90576 11.6171 9.7545 11.3755C9.61388 11.1232 9.73442 10.992 9.86558 10.8709C9.97666 10.7604 10.1179 10.579 10.239 10.4378C10.3595 10.296 10.3997 10.1855 10.4907 10.0242C10.571 9.86292 10.5309 9.71167 10.4706 9.59114C10.4097 9.48006 9.93648 8.25997 9.71433 7.76603V7.76662Z" fill="white"/>
</svg>
