<svg width="201" height="210" viewBox="0 0 201 210" fill="none" xmlns="http://www.w3.org/2000/svg">
<g clip-path="url(#clip0_3_147)">
<path fill-rule="evenodd" clip-rule="evenodd" d="M100.5 191.596C145.881 191.596 182.669 154.81 182.669 109.433C182.669 64.0548 145.881 27.2689 100.5 27.2689C55.1194 27.2689 18.3311 64.0548 18.3311 109.433C18.3311 154.81 55.1194 191.596 100.5 191.596Z" stroke="#3AD29F" stroke-width="0.305962" stroke-dasharray="1.84 1.84"/>
<path fill-rule="evenodd" clip-rule="evenodd" d="M100.5 209.025C155.507 209.025 200.099 164.436 200.099 109.433C200.099 54.4293 155.507 9.84029 100.5 9.84029C45.4932 9.84029 0.901367 54.4293 0.901367 109.433C0.901367 164.436 45.4932 209.025 100.5 209.025Z" stroke="#3AD29F" stroke-width="0.305962" stroke-dasharray="1.84 1.84"/>
<path d="M167.159 141.161C167.162 129.566 158.34 119.873 146.795 118.788C135.25 117.702 124.775 125.58 122.616 136.973L53.5641 135.1L54.3222 146.962C54.3222 146.962 44.4758 169.68 96.2256 175.733V198.695H156.051V160.518C162.926 156.493 167.153 149.127 167.159 141.161Z" fill="url(#paint0_linear_3_147)"/>
<path d="M56.6932 147.46C56.6932 147.46 47.2645 169.216 96.8232 175.02V197.018H154.117V138.76L55.9573 136.098L56.6932 147.46Z" fill="#FFCBB4"/>
<path d="M85.3278 56.6736C82.2179 61.5807 75.7284 63.0553 70.803 59.9739L40.0409 39.7041C35.1334 36.5944 33.6587 30.1053 36.7403 25.1803C39.8498 20.2798 46.3309 18.806 51.254 21.8799L82.0162 42.1497C86.9276 45.2558 88.4074 51.7456 85.3278 56.6736Z" fill="url(#paint1_linear_3_147)"/>
<path d="M83.6236 55.567C80.7328 60.1283 74.7008 61.499 70.1224 58.635L41.5183 39.7788C36.9567 36.8882 35.5859 30.8566 38.4501 26.2785C41.3409 21.7172 47.3729 20.3465 51.9512 23.2105L80.5499 42.0556C85.1202 44.9449 86.4943 50.9852 83.6236 55.567Z" fill="#FFCBB4"/>
<path d="M143.242 163.417C155.125 163.417 164.758 153.785 164.758 141.902C164.758 130.02 155.125 120.388 143.242 120.388C131.359 120.388 121.726 130.02 121.726 141.902C121.726 153.785 131.359 163.417 143.242 163.417Z" fill="#FFCBB4"/>
<path d="M139.368 1.52588e-05H56.945C55.0732 1.52588e-05 53.5558 1.51728 53.5558 3.38892V157.608C53.5558 159.479 55.0732 160.996 56.945 160.996H139.368C141.24 160.996 142.758 159.479 142.758 157.608V3.38892C142.758 1.51728 141.24 1.52588e-05 139.368 1.52588e-05Z" fill="url(#paint2_linear_3_147)"/>
<path d="M137.775 2.17721H58.533C56.4489 2.17721 54.7593 3.86664 54.7593 5.95065V155.051C54.7593 157.135 56.4489 158.825 58.533 158.825H137.775C139.859 158.825 141.549 157.135 141.549 155.051V5.95065C141.549 3.86664 139.859 2.17721 137.775 2.17721Z" fill="white"/>
<path d="M119.958 6.10558C119.439 9.5382 116.494 12.0792 113.022 12.0894H83.0481C79.5773 12.0779 76.6335 9.53717 76.1149 6.10558H60.2345C59.3601 6.10558 58.5213 6.45165 57.9027 7.06964C57.2842 7.68762 56.9366 8.5261 56.9366 9.40042V151.596C56.9366 152.47 57.2827 153.309 57.9008 153.928C58.5188 154.546 59.3573 154.894 60.2317 154.894H136.076C136.95 154.894 137.789 154.548 138.408 153.93C139.026 153.312 139.374 152.473 139.374 151.599V9.40319C139.374 8.52886 139.028 7.69009 138.41 7.07159C137.792 6.45309 136.953 6.10558 136.079 6.10558H119.958Z" fill="#E9ECFF"/>
<path d="M107.394 7.97846H89.1596C88.854 7.97846 88.6063 8.22618 88.6063 8.53175V8.63411C88.6063 8.93968 88.854 9.1874 89.1596 9.1874H107.394C107.7 9.1874 107.948 8.93968 107.948 8.63411V8.53175C107.948 8.22618 107.7 7.97846 107.394 7.97846Z" fill="#DBDBDB"/>
<path d="M112.056 9.36388C112.554 9.36388 112.958 8.96036 112.958 8.4626C112.958 7.96483 112.554 7.56131 112.056 7.56131C111.558 7.56131 111.155 7.96483 111.155 8.4626C111.155 8.96036 111.558 9.36388 112.056 9.36388Z" fill="#DBDBDB"/>
<path d="M157.149 145.698C150.905 147.142 146.62 143.07 145.176 136.829L130.828 83.5552C129.4 77.2898 133.3 71.0475 139.556 69.5818C145.822 68.1543 152.065 72.0535 153.531 78.31L165.239 132.958C166.683 139.202 163.391 144.254 157.149 145.698Z" fill="url(#paint3_linear_3_147)"/>
<path d="M151.921 79.6141C150.704 74.3457 145.446 71.0617 140.177 72.2789C134.908 73.4962 131.624 78.7538 132.841 84.0221L146.035 141.12C147.252 146.388 152.51 149.672 157.779 148.455C163.047 147.238 166.332 141.98 165.114 136.712L151.921 79.6141Z" fill="#FFCBB4"/>
<path d="M164.666 189.82H82.7742V208.909H164.666V189.82Z" fill="url(#paint4_linear_3_147)"/>
<path d="M162.453 192.033H84.9875V206.972H162.453V192.033Z" fill="#2743FD"/>
<path d="M73.3871 113.823C70.3149 118.672 63.903 120.129 59.0366 117.085L38.4058 103.736C33.5566 100.664 32.0992 94.253 35.144 89.3869C38.2162 84.538 44.628 83.0807 49.4945 86.1252L70.1252 99.4733C74.9744 102.545 76.4318 108.957 73.3871 113.823Z" fill="url(#paint5_linear_3_147)"/>
<path d="M68.2079 142.077C65.1084 146.97 58.6381 148.441 53.7274 145.369L40.9483 136.051C36.0547 132.952 34.5836 126.482 37.656 121.572C40.7556 116.678 47.2258 115.207 52.1366 118.28L64.9156 127.6C69.8076 130.699 71.2785 137.167 68.2079 142.077Z" fill="url(#paint6_linear_3_147)"/>
<g opacity="0.5">
<path d="M98.1539 105.382C111.896 105.382 123.037 94.2427 123.037 80.501C123.037 66.7594 111.896 55.6195 98.1539 55.6195C84.4114 55.6195 73.2709 66.7594 73.2709 80.501C73.2709 94.2427 84.4114 105.382 98.1539 105.382Z" fill="url(#paint7_linear_3_147)"/>
</g>
<path opacity="0.5" d="M98.1539 103.919C111.088 103.919 121.573 93.4344 121.573 80.501C121.573 67.5676 111.088 57.083 98.1539 57.083C85.2197 57.083 74.7344 67.5676 74.7344 80.501C74.7344 93.4344 85.2197 103.919 98.1539 103.919Z" fill="#2743FD"/>
<path d="M87.9893 77.3749L96.7706 85.4253L109.212 67.1307L113.606 70.7908L96.7706 92.7453L84.329 78.8411L87.9893 77.3749Z" fill="white"/>
<path d="M67.176 141.382C64.2852 145.944 58.2532 147.314 53.6748 144.45L41.7562 135.775C37.1946 132.884 35.8238 126.852 38.688 122.274C41.5788 117.713 47.6108 116.342 52.1891 119.206L64.105 127.899C68.6575 130.788 70.0284 136.807 67.176 141.382Z" fill="#FFCBB4"/>
<path d="M72.2527 113.09C69.3619 117.651 63.3299 119.022 58.7516 116.158L39.3409 103.598C34.7793 100.707 33.4085 94.6759 36.2727 90.0978C39.1635 85.5365 45.1955 84.1658 49.7739 87.0298L69.1845 99.5895C73.7461 102.48 75.1169 108.512 72.2527 113.09Z" fill="#FFCBB4"/>
<path d="M78.7211 85.7019C75.6338 90.5721 69.193 92.0354 64.3042 88.9774L38.1596 71.9554C33.2892 68.8683 31.8257 62.4279 34.8839 57.5395C37.9712 52.6693 44.412 51.206 49.3008 54.264L75.4454 71.286C80.3159 74.3731 81.7793 80.8134 78.7211 85.7019Z" fill="url(#paint8_linear_3_147)"/>
<path d="M77.3323 84.8167C74.4415 89.378 68.4095 90.7487 63.8311 87.8847L39.3437 71.9416C34.7821 69.051 33.4113 63.0194 36.2755 58.4413C39.1663 53.88 45.1983 52.5093 49.7767 55.3733L74.2613 71.3164C78.8239 74.2061 80.196 80.2379 77.3323 84.8167Z" fill="#FFCBB4"/>
</g>
<defs>
<linearGradient id="paint0_linear_3_147" x1="110.366" y1="198.709" x2="110.366" y2="118.692" gradientUnits="userSpaceOnUse">
<stop stop-color="#808080" stop-opacity="0.25"/>
<stop offset="0.54" stop-color="#808080" stop-opacity="0.12"/>
<stop offset="1" stop-color="#808080" stop-opacity="0.1"/>
</linearGradient>
<linearGradient id="paint1_linear_3_147" x1="61.0313" y1="61.5868" x2="61.0313" y2="20.2726" gradientUnits="userSpaceOnUse">
<stop stop-color="#808080" stop-opacity="0.25"/>
<stop offset="0.54" stop-color="#808080" stop-opacity="0.12"/>
<stop offset="1" stop-color="#808080" stop-opacity="0.1"/>
</linearGradient>
<linearGradient id="paint2_linear_3_147" x1="98.1567" y1="160.994" x2="98.1567" y2="-0.00274843" gradientUnits="userSpaceOnUse">
<stop stop-color="#808080" stop-opacity="0.25"/>
<stop offset="0.54" stop-color="#808080" stop-opacity="0.12"/>
<stop offset="1" stop-color="#808080" stop-opacity="0.1"/>
</linearGradient>
<linearGradient id="paint3_linear_3_147" x1="148.053" y1="145.986" x2="148.053" y2="69.283" gradientUnits="userSpaceOnUse">
<stop stop-color="#808080" stop-opacity="0.25"/>
<stop offset="0.54" stop-color="#808080" stop-opacity="0.12"/>
<stop offset="1" stop-color="#808080" stop-opacity="0.1"/>
</linearGradient>
<linearGradient id="paint4_linear_3_147" x1="123.726" y1="208.903" x2="123.726" y2="189.815" gradientUnits="userSpaceOnUse">
<stop stop-color="#808080" stop-opacity="0.25"/>
<stop offset="0.54" stop-color="#808080" stop-opacity="0.12"/>
<stop offset="1" stop-color="#808080" stop-opacity="0.1"/>
</linearGradient>
<linearGradient id="paint5_linear_3_147" x1="54.2614" y1="118.675" x2="54.2614" y2="84.5373" gradientUnits="userSpaceOnUse">
<stop stop-color="#808080" stop-opacity="0.25"/>
<stop offset="0.54" stop-color="#808080" stop-opacity="0.12"/>
<stop offset="1" stop-color="#808080" stop-opacity="0.1"/>
</linearGradient>
<linearGradient id="paint6_linear_3_147" x1="52.9334" y1="146.973" x2="52.9334" y2="116.672" gradientUnits="userSpaceOnUse">
<stop stop-color="#808080" stop-opacity="0.25"/>
<stop offset="0.54" stop-color="#808080" stop-opacity="0.12"/>
<stop offset="1" stop-color="#808080" stop-opacity="0.1"/>
</linearGradient>
<linearGradient id="paint7_linear_3_147" x1="98.1539" y1="105.382" x2="98.1539" y2="55.6168" gradientUnits="userSpaceOnUse">
<stop stop-color="#808080" stop-opacity="0.25"/>
<stop offset="0.54" stop-color="#808080" stop-opacity="0.12"/>
<stop offset="1" stop-color="#808080" stop-opacity="0.1"/>
</linearGradient>
<linearGradient id="paint8_linear_3_147" x1="56.8011" y1="90.5847" x2="56.8011" y2="52.676" gradientUnits="userSpaceOnUse">
<stop stop-color="#808080" stop-opacity="0.25"/>
<stop offset="0.54" stop-color="#808080" stop-opacity="0.12"/>
<stop offset="1" stop-color="#808080" stop-opacity="0.1"/>
</linearGradient>
<clipPath id="clip0_3_147">
<rect width="201" height="210" fill="white"/>
</clipPath>
</defs>
</svg>
