<svg width="204" height="143" viewBox="0 0 204 143" fill="none" xmlns="http://www.w3.org/2000/svg">
<g opacity="0.2">
<path opacity="0.4" d="M193.255 65.9533C193.804 66.4891 194.682 66.4891 195.231 65.9533C195.621 65.5733 196.194 65.4506 196.705 65.6386C197.423 65.9026 198.224 65.5396 198.508 64.8294C198.71 64.3236 199.186 63.9731 199.729 63.9353C200.493 63.8821 201.076 63.2231 201.049 62.4584C201.03 61.9128 201.322 61.397 201.804 61.1395C202.481 60.7772 202.749 59.9399 202.414 59.2488C202.175 58.7564 202.235 58.167 202.571 57.7347C203.043 57.1266 202.952 56.253 202.364 55.7562C201.947 55.4035 201.767 54.8387 201.899 54.3082C202.083 53.5645 201.649 52.7994 200.912 52.5871C200.388 52.4361 199.995 51.9928 199.902 51.4556C199.771 50.7024 199.063 50.1793 198.306 50.2872C197.767 50.364 197.23 50.1221 196.928 49.6694C196.503 49.0326 195.644 48.8465 194.997 49.2553C194.536 49.5459 193.95 49.5459 193.489 49.2553C192.841 48.8465 191.983 49.0326 191.558 49.6694C191.255 50.1221 190.718 50.364 190.179 50.2872C189.423 50.1793 188.715 50.7024 188.584 51.4556C188.49 51.9928 188.097 52.4361 187.573 52.5871C186.837 52.7994 186.403 53.5645 186.587 54.3082C186.719 54.8387 186.539 55.4035 186.121 55.7562C185.533 56.253 185.443 57.1266 185.915 57.7347C186.25 58.167 186.311 58.7564 186.072 59.2488C185.737 59.9399 186.005 60.7772 186.682 61.1395C187.164 61.397 187.456 61.9128 187.437 62.4584C187.41 63.2231 187.993 63.8821 188.756 63.9353C189.3 63.9731 189.776 64.3236 189.978 64.8294C190.262 65.5396 191.063 65.9026 191.78 65.6386C192.291 65.4506 192.865 65.5733 193.255 65.9533Z" fill="#2743FD"/>
<path opacity="0.4" d="M8.76888 32.7403C9.3183 33.276 10.1957 33.276 10.7452 32.7403C11.1349 32.3602 11.7086 32.2376 12.2195 32.4255C12.9373 32.6896 13.7381 32.3266 14.022 31.6164C14.2243 31.1106 14.7001 30.7601 15.2435 30.7222C16.0067 30.669 16.5902 30.01 16.5631 29.2454C16.5437 28.6998 16.8363 28.184 17.3177 27.9264C17.9948 27.5641 18.2627 26.7268 17.9277 26.0358C17.689 25.5434 17.7495 24.9539 18.085 24.5217C18.557 23.9136 18.4665 23.0399 17.8784 22.5432C17.4608 22.1905 17.2811 21.6257 17.4128 21.0952C17.5973 20.3514 17.1628 19.5863 16.4265 19.3741C15.9025 19.2231 15.5096 18.7798 15.416 18.2426C15.2849 17.4893 14.5774 16.9662 13.8204 17.0741C13.2815 17.1509 12.7444 16.9091 12.4421 16.4564C12.0167 15.8195 11.1585 15.6335 10.5109 16.0422C10.0503 16.3329 9.46371 16.3329 9.00317 16.0422C8.35549 15.6335 7.4973 15.8195 7.07194 16.4564C6.76958 16.9091 6.23257 17.1509 5.69364 17.0741C4.93667 16.9662 4.22912 17.4893 4.09799 18.2426C4.00448 18.7798 3.6115 19.2231 3.08758 19.3741C2.35125 19.5863 1.91671 20.3514 2.10127 21.0952C2.23292 21.6257 2.05323 22.1905 1.63563 22.5432C1.04752 23.0399 0.957022 23.9136 1.42905 24.5217C1.76458 24.9539 1.825 25.5434 1.58631 26.0358C1.25132 26.7268 1.5192 27.5641 2.19633 27.9264C2.67769 28.184 2.97029 28.6998 2.95097 29.2454C2.92388 30.01 3.50729 30.669 4.27056 30.7222C4.81394 30.7601 5.28976 31.1106 5.49198 31.6164C5.77595 32.3266 6.5767 32.6896 7.29455 32.4255C7.80542 32.2376 8.37916 32.3602 8.76888 32.7403Z" fill="#2743FD"/>
<path d="M109.535 27.9253C113.106 24.4429 118.81 24.4429 122.381 27.9253C124.914 30.3955 128.643 31.1926 131.964 29.9711C136.63 28.2547 141.835 30.6142 143.681 35.2306C144.995 38.5181 148.088 40.7964 151.62 41.0426C156.581 41.3883 160.373 45.6718 160.197 50.642C160.072 54.1883 161.974 57.5412 165.102 59.2152C169.504 61.5701 171.245 67.0127 169.068 71.5045C167.516 74.7051 167.909 78.5364 170.09 81.3461C173.158 85.2988 172.57 90.9775 168.747 94.2062C166.033 96.4987 164.865 100.17 165.72 103.618C166.92 108.453 164.095 113.426 159.309 114.805C155.904 115.787 153.349 118.668 152.742 122.16C151.889 127.056 147.29 130.456 142.37 129.755C138.867 129.256 135.376 130.828 133.411 133.77C130.646 137.91 125.068 139.119 120.858 136.462C117.864 134.573 114.051 134.573 111.058 136.462C106.848 139.119 101.27 137.91 98.5049 133.77C96.5396 130.828 93.0491 129.256 89.546 129.755C84.6257 130.456 80.0267 127.056 79.1743 122.16C78.5664 118.668 76.0121 115.787 72.6066 114.805C67.8205 113.426 64.996 108.453 66.1956 103.618C67.0513 100.17 65.8834 96.4987 63.169 94.2062C59.3462 90.9775 58.758 85.2988 61.8262 81.3461C64.0071 78.5364 64.3999 74.7051 62.8484 71.5045C60.671 67.0127 62.4122 61.5701 66.8135 59.2152C69.9424 57.5412 71.8443 54.1883 71.7186 50.642C71.5425 45.6718 75.3348 41.3883 80.296 41.0426C83.828 40.7964 86.9208 38.5181 88.2352 35.2306C90.081 30.6142 95.2859 28.2547 99.9519 29.9711C103.273 31.1926 107.002 30.3955 109.535 27.9253Z" fill="#2743FD"/>
<path opacity="0.4" d="M123.249 9.30829C123.524 9.57617 123.962 9.57617 124.237 9.30829C124.432 9.11827 124.719 9.05695 124.974 9.15091C125.333 9.28295 125.734 9.10145 125.876 8.74634C125.977 8.49345 126.215 8.3182 126.486 8.29926C126.868 8.27267 127.16 7.94317 127.146 7.56085C127.136 7.28805 127.283 7.03014 127.523 6.90137C127.862 6.72023 127.996 6.30156 127.828 5.95604C127.709 5.70984 127.739 5.41513 127.907 5.199C128.143 4.89494 128.098 4.45812 127.804 4.20976C127.595 4.03341 127.505 3.751 127.571 3.48573C127.663 3.11386 127.446 2.73132 127.078 2.62521C126.816 2.5497 126.619 2.32804 126.573 2.05946C126.507 1.68281 126.153 1.42127 125.775 1.47521C125.505 1.51361 125.237 1.3927 125.086 1.16635C124.873 0.847913 124.444 0.754901 124.12 0.959271C123.89 1.10459 123.596 1.10459 123.366 0.959271C123.042 0.754901 122.613 0.847913 122.4 1.16635C122.249 1.3927 121.981 1.51361 121.711 1.47521C121.333 1.42127 120.979 1.68281 120.913 2.05946C120.867 2.32804 120.67 2.5497 120.408 2.62521C120.04 2.73132 119.823 3.11386 119.915 3.48573C119.981 3.751 119.891 4.03341 119.682 4.20976C119.388 4.45812 119.343 4.89494 119.579 5.199C119.747 5.41513 119.777 5.70984 119.658 5.95604C119.49 6.30156 119.624 6.72023 119.963 6.90137C120.203 7.03014 120.35 7.28805 120.34 7.56085C120.326 7.94317 120.618 8.27267 121 8.29926C121.271 8.3182 121.509 8.49345 121.61 8.74634C121.752 9.10145 122.153 9.28295 122.512 9.15091C122.767 9.05695 123.054 9.11827 123.249 9.30829Z" fill="#2743FD"/>
<path opacity="0.4" d="M29.4058 135.243C29.8375 135.664 30.5269 135.664 30.9586 135.243C31.2648 134.945 31.7156 134.848 32.117 134.996C32.6811 135.204 33.3102 134.918 33.5333 134.36C33.6922 133.963 34.0661 133.687 34.493 133.658C35.0927 133.616 35.5511 133.098 35.5298 132.497C35.5147 132.069 35.7446 131.663 36.1228 131.461C36.6548 131.176 36.8653 130.518 36.6021 129.976C36.4145 129.589 36.462 129.126 36.7256 128.786C37.0965 128.308 37.0254 127.622 36.5633 127.231C36.2352 126.954 36.094 126.51 36.1975 126.094C36.3425 125.509 36.001 124.908 35.4225 124.741C35.0109 124.623 34.7021 124.274 34.6286 123.852C34.5256 123.26 33.9696 122.849 33.3749 122.934C32.9514 122.995 32.5295 122.805 32.2919 122.449C31.9577 121.948 31.2834 121.802 30.7745 122.123C30.4127 122.352 29.9518 122.352 29.5899 122.123C29.081 121.802 28.4067 121.948 28.0725 122.449C27.835 122.805 27.413 122.995 26.9896 122.934C26.3948 122.849 25.8389 123.26 25.7359 123.852C25.6624 124.274 25.3536 124.623 24.942 124.741C24.3634 124.908 24.022 125.509 24.167 126.094C24.2704 126.51 24.1293 126.954 23.8011 127.231C23.3391 127.622 23.268 128.308 23.6388 128.786C23.9025 129.126 23.9499 129.589 23.7624 129.976C23.4992 130.518 23.7097 131.176 24.2417 131.461C24.6199 131.663 24.8498 132.069 24.8346 132.497C24.8133 133.098 25.2717 133.616 25.8715 133.658C26.2984 133.687 26.6722 133.963 26.8311 134.36C27.0543 134.918 27.6834 135.204 28.2474 134.996C28.6488 134.848 29.0996 134.945 29.4058 135.243Z" fill="#2743FD"/>
<path opacity="0.4" d="M23.0994 75.7349C23.3741 76.0028 23.8128 76.0028 24.0875 75.7349C24.2824 75.5449 24.5693 75.4836 24.8247 75.5775C25.1836 75.7096 25.584 75.5281 25.726 75.1729C25.8271 74.9201 26.065 74.7448 26.3367 74.7259C26.7183 74.6993 27.01 74.3698 26.9965 73.9875C26.9868 73.7147 27.1331 73.4567 27.3738 73.328C27.7124 73.1468 27.8463 72.7282 27.6788 72.3826C27.5595 72.1364 27.5897 71.8417 27.7575 71.6256C27.9935 71.3215 27.9482 70.8847 27.6542 70.6364C27.4454 70.46 27.3555 70.1776 27.4213 69.9123C27.5136 69.5405 27.2964 69.1579 26.9282 69.0518C26.6662 68.9763 26.4697 68.7546 26.423 68.4861C26.3574 68.1094 26.0036 67.8479 25.6252 67.9018C25.3557 67.9402 25.0872 67.8193 24.936 67.593C24.7233 67.2745 24.2942 67.1815 23.9704 67.3859C23.7401 67.5312 23.4468 67.5312 23.2165 67.3859C22.8927 67.1815 22.4636 67.2745 22.2509 67.593C22.0998 67.8193 21.8313 67.9402 21.5618 67.9018C21.1833 67.8479 20.8295 68.1094 20.764 68.4861C20.7172 68.7546 20.5207 68.9763 20.2588 69.0518C19.8906 69.1579 19.6733 69.5405 19.7656 69.9123C19.8314 70.1776 19.7416 70.46 19.5328 70.6364C19.2387 70.8847 19.1935 71.3215 19.4295 71.6256C19.5973 71.8417 19.6275 72.1364 19.5081 72.3826C19.3406 72.7282 19.4746 73.1468 19.8131 73.328C20.0538 73.4567 20.2001 73.7147 20.1904 73.9875C20.1769 74.3698 20.4686 74.6993 20.8502 74.7259C21.1219 74.7448 21.3598 74.9201 21.461 75.1729C21.6029 75.5281 22.0033 75.7096 22.3622 75.5775C22.6177 75.4836 22.9045 75.5449 23.0994 75.7349Z" fill="#2743FD"/>
<path opacity="0.4" d="M168.053 115.591C168.327 115.859 168.766 115.859 169.041 115.591C169.236 115.401 169.523 115.339 169.778 115.433C170.137 115.565 170.537 115.384 170.679 115.029C170.78 114.776 171.018 114.601 171.29 114.582C171.672 114.555 171.963 114.226 171.95 113.843C171.94 113.57 172.086 113.312 172.327 113.184C172.666 113.003 172.8 112.584 172.632 112.238C172.513 111.992 172.543 111.697 172.711 111.481C172.947 111.177 172.901 110.74 172.607 110.492C172.399 110.316 172.309 110.033 172.375 109.768C172.467 109.396 172.25 109.014 171.881 108.908C171.619 108.832 171.423 108.61 171.376 108.342C171.311 107.965 170.957 107.704 170.578 107.758C170.309 107.796 170.04 107.675 169.889 107.449C169.677 107.13 169.247 107.037 168.924 107.242C168.693 107.387 168.4 107.387 168.17 107.242C167.846 107.037 167.417 107.13 167.204 107.449C167.053 107.675 166.784 107.796 166.515 107.758C166.137 107.704 165.783 107.965 165.717 108.342C165.67 108.61 165.474 108.832 165.212 108.908C164.844 109.014 164.627 109.396 164.719 109.768C164.785 110.033 164.695 110.316 164.486 110.492C164.192 110.74 164.147 111.177 164.383 111.481C164.551 111.697 164.581 111.992 164.461 112.238C164.294 112.584 164.428 113.003 164.766 113.184C165.007 113.312 165.153 113.57 165.144 113.843C165.13 114.226 165.422 114.555 165.803 114.582C166.075 114.601 166.313 114.776 166.414 115.029C166.556 115.384 166.957 115.565 167.315 115.433C167.571 115.339 167.858 115.401 168.053 115.591Z" fill="#2743FD"/>
</g>
<g clip-path="url(#clip0_48_665)">
<path d="M118.864 104.205C120.292 104.011 121.42 105.447 120.936 106.843C120.683 107.551 120.096 108.048 119.367 108.147C117.689 108.369 115.994 108.422 114.306 108.305C108.079 107.873 102.476 105.099 98.3257 100.83C93.7998 96.176 91 89.7456 91 82.6442C91 75.5418 93.7998 69.1123 98.3257 64.458C102.852 59.8036 109.104 56.9243 116.01 56.9243C118.404 56.9243 120.738 57.2787 122.962 57.9394C124.787 58.4808 126.545 59.2359 128.202 60.1897L127.709 58.8623C127.298 57.7499 127.841 56.5054 128.921 56.0813C130.003 55.6583 131.213 56.2165 131.625 57.3289L133.709 62.9359C133.788 63.1492 133.833 63.3738 133.845 63.6016C134.008 64.6464 133.399 65.682 132.387 65.9975L126.807 67.7531C125.702 68.0972 124.536 67.456 124.201 66.3211C123.867 65.1862 124.49 63.9858 125.594 63.6416L126.053 63.4972C124.73 62.7609 123.334 62.173 121.889 61.7436C120.04 61.1946 118.068 60.8996 116.01 60.8996C110.171 60.8996 104.884 63.3333 101.059 67.2686C97.2321 71.2029 94.8655 76.6388 94.8655 82.6442C94.8655 88.6485 97.2321 94.0844 101.059 98.0197C104.526 101.585 109.192 103.919 114.382 104.324C115.867 104.44 117.393 104.402 118.864 104.205ZM112.181 72.1831C112.181 71.0861 113.047 70.196 114.115 70.196C115.181 70.196 116.047 71.0861 116.047 72.1831V84.282L124.1 87.9223C125.076 88.3638 125.518 89.5356 125.089 90.5394C124.659 91.5422 123.52 91.998 122.544 91.5565L113.434 87.4389C112.702 87.1551 112.181 86.4289 112.181 85.5777V72.1831ZM125.598 102.081C124.042 102.899 124.249 105.246 125.925 105.761C126.41 105.903 126.893 105.86 127.346 105.627C128.593 104.983 129.79 104.224 130.912 103.372C131.46 102.952 131.745 102.29 131.686 101.59C131.537 100.045 129.826 99.2612 128.61 100.179C127.66 100.9 126.652 101.536 125.598 102.081ZM133.482 94.9571C132.602 96.3071 133.591 98.1222 135.172 98.0505C135.791 98.0167 136.345 97.7053 136.691 97.1727C137.474 95.9783 138.15 94.7277 138.73 93.4166C139.289 92.1219 138.418 90.6715 137.041 90.6111C136.251 90.5844 135.536 91.0382 135.207 91.7788C134.716 92.8901 134.145 93.9451 133.482 94.9571ZM137.034 84.7634C136.964 85.5439 137.333 86.2753 137.989 86.6717C139.22 87.3907 140.738 86.5856 140.882 85.1383C141.015 83.7023 141.036 82.2806 140.94 80.8414C140.892 80.15 140.504 79.5406 139.906 79.2179C138.566 78.503 136.977 79.5723 137.084 81.12C137.165 82.341 137.146 83.5445 137.034 84.7634ZM135.432 74.0719C135.866 75.0993 137.028 75.5612 138.017 75.0921C138.97 74.6414 139.397 73.4932 138.984 72.5017C138.436 71.1814 137.777 69.9123 137.023 68.7036C136.076 67.2061 133.847 67.6425 133.502 69.395C133.407 69.9102 133.497 70.4132 133.773 70.8567C134.412 71.883 134.968 72.9503 135.432 74.0719Z" fill="#2743FD"/>
</g>
<defs>
<clipPath id="clip0_48_665">
<rect width="50" height="52.4251" fill="white" transform="translate(91 55.9401)"/>
</clipPath>
</defs>
</svg>
