<svg width="203" height="141" viewBox="0 0 203 141" fill="none" xmlns="http://www.w3.org/2000/svg">
<g opacity="0.2">
<path opacity="0.4" d="M192.723 64.9329C193.274 65.4654 194.147 65.4654 194.698 64.9329C195.089 64.5548 195.661 64.4331 196.172 64.6195C196.891 64.8821 197.689 64.5267 197.976 63.8164C198.179 63.312 198.653 62.968 199.195 62.9305C199.959 62.8777 200.544 62.2285 200.516 61.4631C200.497 60.9196 200.79 60.4128 201.27 60.1579C201.946 59.7989 202.216 58.968 201.88 58.2799C201.641 57.7913 201.702 57.2093 202.038 56.7811C202.51 56.1779 202.418 55.3091 201.831 54.8172C201.414 54.468 201.234 53.9115 201.365 53.3839C201.551 52.6409 201.115 51.8844 200.378 51.6738C199.855 51.5244 199.464 51.0895 199.37 50.5539C199.237 49.7995 198.531 49.286 197.772 49.3932C197.234 49.4693 196.699 49.2313 196.395 48.7802C195.968 48.1449 195.113 47.9633 194.464 48.3697C194.003 48.6582 193.418 48.6582 192.957 48.3697C192.308 47.9633 191.453 48.1449 191.025 48.7802C190.722 49.2313 190.187 49.4693 189.649 49.3932C188.89 49.286 188.183 49.7995 188.051 50.5539C187.957 51.0895 187.565 51.5244 187.043 51.6738C186.306 51.8844 185.869 52.6409 186.055 53.3839C186.187 53.9115 186.006 54.468 185.59 54.8172C185.002 55.3091 184.911 56.1779 185.383 56.7811C185.718 57.2093 185.779 57.7913 185.541 58.2799C185.204 58.968 185.474 59.7989 186.151 60.1579C186.631 60.4128 186.924 60.9196 186.904 61.4631C186.877 62.2285 187.462 62.8777 188.226 62.9305C188.768 62.968 189.242 63.312 189.445 63.8164C189.731 64.5267 190.529 64.8821 191.249 64.6195C191.76 64.4331 192.332 64.5548 192.723 64.9329Z" fill="#2743FD"/>
<path opacity="0.4" d="M8.23696 31.9889C8.78749 32.5214 9.66111 32.5214 10.2116 31.9889C10.6025 31.6109 11.1749 31.4892 11.6858 31.6756C12.4053 31.9381 13.2034 31.5828 13.4897 30.8724C13.693 30.3681 14.1665 30.0241 14.7089 29.9866C15.473 29.9338 16.0576 29.2846 16.0303 28.5191C16.0109 27.9757 16.3035 27.4689 16.7838 27.214C17.4603 26.8549 17.7303 26.0241 17.394 25.336C17.1552 24.8474 17.2164 24.2654 17.5515 23.8372C18.0236 23.234 17.9322 22.3652 17.3451 21.8733C16.9283 21.5241 16.7474 20.9675 16.8794 20.44C17.0653 19.697 16.6285 18.9404 15.8921 18.7299C15.3692 18.5804 14.9777 18.1455 14.8837 17.6099C14.7513 16.8555 14.0445 16.342 13.2861 16.4492C12.7477 16.5254 12.2131 16.2873 11.9093 15.8363C11.4816 15.201 10.627 15.0193 9.97783 15.4257C9.5169 15.7142 8.93169 15.7142 8.47077 15.4257C7.82156 15.0193 6.96704 15.201 6.53925 15.8363C6.23553 16.2873 5.70091 16.5254 5.16249 16.4492C4.40411 16.342 3.69734 16.8555 3.56494 17.6099C3.47094 18.1455 3.07936 18.5804 2.55653 18.7299C1.82011 18.9404 1.38331 19.697 1.56919 20.44C1.70116 20.9675 1.52032 21.5241 1.10348 21.8733C0.516365 22.3652 0.425048 23.234 0.897074 23.8372C1.2322 24.2654 1.29337 24.8474 1.0546 25.336C0.718301 26.0241 0.988261 26.8549 1.66481 27.214C2.14514 27.4689 2.43775 27.9757 2.41834 28.5191C2.391 29.2846 2.97556 29.9338 3.73965 29.9866C4.28214 30.0241 4.75558 30.3681 4.95889 30.8724C5.24524 31.5828 6.04332 31.9381 6.76284 31.6756C7.27368 31.4892 7.8461 31.6109 8.23696 31.9889Z" fill="#2743FD"/>
<path d="M109.008 27.2074C112.586 23.7462 118.264 23.7462 121.843 27.2074C124.384 29.6647 128.104 30.4556 131.425 29.244C136.102 27.5376 141.289 29.8472 143.15 34.4647C144.472 37.7429 147.549 39.9788 151.075 40.2225C156.042 40.5658 159.842 44.7858 159.664 49.7611C159.538 53.2934 161.44 56.5876 164.562 58.2445C168.959 60.5783 170.714 65.9788 168.528 70.4517C166.976 73.6273 167.374 77.4103 169.552 80.1939C172.62 84.1145 172.027 89.7619 168.211 92.9589C165.501 95.2288 164.326 98.8465 165.183 102.275C166.392 107.105 163.552 112.023 158.766 113.391C155.367 114.363 152.822 117.189 152.211 120.671C151.35 125.574 146.756 128.912 141.827 128.215C138.327 127.721 134.852 129.268 132.878 132.2C130.097 136.329 124.543 137.51 120.323 134.868C117.327 132.993 113.523 132.993 110.527 134.868C106.307 137.51 100.753 136.329 97.9724 132.2C95.9982 129.268 92.5232 127.721 89.0234 128.215C84.094 128.912 79.5 125.574 78.6394 120.671C78.0284 117.189 75.4831 114.363 72.0847 113.391C67.298 112.023 64.4588 107.105 65.667 102.275C66.5248 98.8465 65.3494 95.2288 62.6399 92.9589C58.8237 89.7619 58.2301 84.1145 61.2983 80.1939C63.4766 77.4103 63.8742 73.6273 62.3222 70.4517C60.1362 65.9788 61.891 60.5783 66.2886 58.2445C69.4107 56.5876 71.3127 53.2934 71.1865 49.7611C71.0088 44.7858 74.8084 40.5658 79.775 40.2225C83.3012 39.9788 86.3786 37.7429 87.7 34.4647C89.5613 29.8472 94.7489 27.5376 99.4258 29.244C102.746 30.4556 106.467 29.6647 109.008 27.2074Z" fill="#2743FD"/>
<path opacity="0.4" d="M122.717 8.74681C122.992 9.01306 123.429 9.01306 123.704 8.74681C123.899 8.55779 124.186 8.49695 124.441 8.59015C124.801 8.72141 125.2 8.54375 125.343 8.18856C125.445 7.93639 125.681 7.7644 125.953 7.74565C126.335 7.71924 126.627 7.39463 126.613 7.01192C126.604 6.7402 126.75 6.4868 126.99 6.35934C127.328 6.17982 127.463 5.7644 127.295 5.42033C127.176 5.17605 127.206 4.88505 127.374 4.67093C127.61 4.36934 127.564 3.93493 127.271 3.689C127.062 3.5144 126.972 3.23611 127.038 2.97235C127.131 2.60084 126.912 2.22256 126.544 2.11729C126.283 2.04256 126.087 1.82511 126.04 1.55732C125.974 1.18012 125.62 0.923374 125.241 0.976974C124.972 1.01503 124.705 0.896014 124.553 0.670486C124.339 0.352829 123.912 0.262012 123.587 0.465207C123.357 0.60947 123.064 0.60947 122.834 0.465207C122.509 0.262012 122.082 0.352829 121.868 0.670486C121.716 0.896014 121.449 1.01503 121.179 0.976974C120.8 0.923374 120.447 1.18012 120.381 1.55732C120.334 1.82511 120.138 2.04256 119.876 2.11729C119.508 2.22256 119.29 2.60084 119.383 2.97235C119.449 3.23612 119.358 3.5144 119.15 3.689C118.856 3.93493 118.811 4.36934 119.047 4.67093C119.214 4.88505 119.245 5.17605 119.125 5.42033C118.957 5.7644 119.092 6.17982 119.431 6.35934C119.671 6.4868 119.817 6.7402 119.807 7.01191C119.794 7.39463 120.086 7.71924 120.468 7.74565C120.739 7.7644 120.976 7.93639 121.078 8.18856C121.221 8.54375 121.62 8.72141 121.98 8.59015C122.235 8.49695 122.521 8.55779 122.717 8.74681Z" fill="#2743FD"/>
<path opacity="0.4" d="M28.8738 133.661C29.3063 134.079 29.9927 134.079 30.4253 133.661C30.7324 133.364 31.1821 133.268 31.5835 133.415C32.1489 133.621 32.7759 133.342 33.0009 132.784C33.1607 132.387 33.5326 132.117 33.9589 132.088C34.5592 132.046 35.0185 131.536 34.9971 130.935C34.9818 130.508 35.2117 130.109 35.5891 129.909C36.1207 129.627 36.3328 128.974 36.0686 128.434C35.881 128.05 35.929 127.592 36.1923 127.256C36.5632 126.782 36.4915 126.099 36.0302 125.713C35.7026 125.438 35.5606 125.001 35.6642 124.587C35.8103 124.003 35.4671 123.408 34.8885 123.243C34.4777 123.126 34.17 122.784 34.0962 122.363C33.9921 121.77 33.4368 121.367 32.8409 121.451C32.4179 121.511 31.9978 121.324 31.7592 120.969C31.4231 120.47 30.7517 120.328 30.2416 120.647C29.8794 120.874 29.4196 120.874 29.0575 120.647C28.5474 120.328 27.876 120.47 27.5398 120.969C27.3012 121.324 26.8811 121.511 26.4581 121.451C25.8622 121.367 25.3069 121.77 25.2029 122.363C25.129 122.784 24.8214 123.126 24.4106 123.243C23.8319 123.408 23.4887 124.003 23.6348 124.587C23.7385 125.001 23.5964 125.438 23.2689 125.713C22.8076 126.099 22.7358 126.782 23.1067 127.256C23.37 127.592 23.4181 128.05 23.2305 128.434C22.9662 128.974 23.1783 129.627 23.7099 129.909C24.0873 130.109 24.3172 130.508 24.302 130.935C24.2805 131.536 24.7398 132.046 25.3402 132.088C25.7664 132.117 26.1384 132.387 26.2981 132.784C26.5231 133.342 27.1502 133.621 27.7155 133.415C28.1169 133.268 28.5666 133.364 28.8738 133.661Z" fill="#2743FD"/>
<path opacity="0.4" d="M22.567 74.6347C22.8422 74.9009 23.279 74.9009 23.5543 74.6347C23.7497 74.4456 24.0359 74.3848 24.2914 74.478C24.6511 74.6093 25.0502 74.4316 25.1933 74.0764C25.295 73.8242 25.5317 73.6522 25.803 73.6335C26.185 73.6071 26.4773 73.2825 26.4636 72.8998C26.4539 72.628 26.6002 72.3746 26.8404 72.2472C27.1787 72.0677 27.3136 71.6522 27.1455 71.3082C27.0261 71.0639 27.0567 70.7729 27.2242 70.5588C27.4603 70.2572 27.4146 69.8228 27.121 69.5768C26.9126 69.4022 26.8222 69.124 26.8882 68.8602C26.9811 68.4887 26.7627 68.1104 26.3945 68.0051C26.1331 67.9304 25.9373 67.713 25.8903 67.4452C25.8241 67.068 25.4707 66.8112 25.0915 66.8648C24.8223 66.9029 24.555 66.7839 24.4032 66.5583C24.1893 66.2407 23.762 66.1499 23.4374 66.3531C23.2069 66.4973 22.9143 66.4973 22.6839 66.3531C22.3593 66.1499 21.932 66.2407 21.7181 66.5583C21.5663 66.7839 21.2989 66.9029 21.0297 66.8648C20.6505 66.8112 20.2972 67.068 20.231 67.4452C20.184 67.713 19.9882 67.9304 19.7267 68.0051C19.3585 68.1104 19.1401 68.4887 19.2331 68.8602C19.2991 69.124 19.2086 69.4022 19.0002 69.5768C18.7067 69.8228 18.661 70.2572 18.897 70.5588C19.0646 70.7729 19.0952 71.0639 18.9758 71.3082C18.8076 71.6522 18.9426 72.0677 19.2809 72.2472C19.5211 72.3746 19.6674 72.628 19.6577 72.8998C19.644 73.2825 19.9363 73.6071 20.3183 73.6335C20.5896 73.6522 20.8263 73.8242 20.9279 74.0764C21.0711 74.4316 21.4701 74.6093 21.8299 74.478C22.0853 74.3848 22.3715 74.4456 22.567 74.6347Z" fill="#2743FD"/>
<path opacity="0.4" d="M167.52 114.167C167.796 114.434 168.232 114.434 168.508 114.167C168.703 113.978 168.989 113.918 169.245 114.011C169.604 114.142 170.004 113.964 170.147 113.609C170.248 113.357 170.485 113.185 170.756 113.166C171.138 113.14 171.431 112.815 171.417 112.432C171.407 112.161 171.554 111.907 171.794 111.78C172.132 111.6 172.267 111.185 172.099 110.841C171.979 110.597 172.01 110.306 172.178 110.091C172.414 109.79 172.368 109.355 172.074 109.11C171.866 108.935 171.776 108.657 171.842 108.393C171.935 108.021 171.716 107.643 171.348 107.538C171.086 107.463 170.891 107.246 170.844 106.978C170.777 106.601 170.424 106.344 170.045 106.398C169.776 106.436 169.508 106.317 169.357 106.091C169.143 105.773 168.715 105.683 168.391 105.886C168.16 106.03 167.868 106.03 167.637 105.886C167.313 105.683 166.885 105.773 166.671 106.091C166.52 106.317 166.252 106.436 165.983 106.398C165.604 106.344 165.251 106.601 165.184 106.978C165.137 107.246 164.942 107.463 164.68 107.538C164.312 107.643 164.094 108.021 164.186 108.393C164.252 108.657 164.162 108.935 163.954 109.11C163.66 109.355 163.614 109.79 163.85 110.091C164.018 110.306 164.049 110.597 163.929 110.841C163.761 111.185 163.896 111.6 164.234 111.78C164.474 111.907 164.621 112.161 164.611 112.432C164.597 112.815 164.89 113.14 165.272 113.166C165.543 113.185 165.78 113.357 165.881 113.609C166.024 113.964 166.424 114.142 166.783 114.011C167.039 113.918 167.325 113.978 167.52 114.167Z" fill="#2743FD"/>
</g>
<g clip-path="url(#clip0_61_1113)">
<path fill-rule="evenodd" clip-rule="evenodd" d="M104.504 85.446C105.753 86.5317 109.328 86.7553 110.661 87.5058C111.085 87.7453 111.471 88.0486 111.783 88.4585C112.55 89.4751 112.608 90.7737 112.899 92.0139C112.83 92.7484 112.418 93.1688 111.608 93.2274H103.039C103.044 93.0304 103.05 92.8388 103.05 92.6472L101.817 88.3361L102.42 87.6708C102.616 87.3674 102.7 87.0746 102.632 86.7979C102.425 85.9622 101.605 86.09 100.939 86.09C100.304 86.09 99.6271 85.9676 99.2992 86.6222C99.1458 86.9256 99.2092 87.2716 99.479 87.6761L100.082 88.3414L98.8495 92.6526C98.876 92.8495 98.9024 93.0411 98.9289 93.2327H90.5817C89.7724 93.1688 89.3598 92.7484 89.291 92.0192C89.5819 90.7791 89.6401 89.4804 90.4071 88.4638C90.7192 88.054 91.1001 87.7506 91.5286 87.5111C92.8404 86.7713 96.321 86.5424 97.6223 85.5045C97.818 85.0734 98.019 84.4666 98.146 84.0834C98.1513 84.0621 98.1354 84.1154 98.1989 83.9238C98.3417 83.4873 97.4848 82.6357 97.1991 82.1727L96.1306 80.4642C95.7392 79.8787 95.5382 79.3411 95.5276 78.9047C95.5223 78.6971 95.554 78.5108 95.6334 78.3458C95.7127 78.1755 95.8344 78.0265 95.9984 77.9147C96.0777 77.8615 96.1624 77.8189 96.2576 77.7817C96.1888 76.8556 96.1624 75.6899 96.2047 74.7159C96.2258 74.4817 96.2734 74.2529 96.3369 74.0187C96.7284 72.6136 97.9291 71.6023 99.2939 71.1286C99.9604 70.8997 99.7012 70.3462 100.373 70.3835C101.965 70.4686 104.42 71.5012 105.366 72.5976C106.689 74.1305 106.35 76.0199 106.303 77.8934C106.599 77.9839 106.789 78.1702 106.863 78.4789C106.948 78.8195 106.858 79.2932 106.573 79.9426C106.567 79.9532 106.562 79.9639 106.557 79.9798L105.34 81.9917C104.869 82.7688 104.398 83.5459 103.764 84.142C103.732 84.1686 103.7 84.2005 103.668 84.2271C103.758 84.3549 103.869 84.5145 103.981 84.6849C104.145 84.935 104.324 85.2011 104.504 85.446ZM86.2336 61H143.706C144.743 61 145.685 61.4258 146.367 62.1124L146.446 62.1975C147.081 62.8788 147.473 63.789 147.473 64.7843V100.21C147.473 101.248 147.049 102.196 146.367 102.882C145.685 103.569 144.743 103.995 143.706 103.995H86.2336C85.2021 103.995 84.2605 103.569 83.5781 102.882C82.8905 102.206 82.4673 101.259 82.4673 100.216V64.7896C82.4673 63.7517 82.8905 62.8043 83.5728 62.1177C84.2552 61.4258 85.1968 61 86.2336 61ZM118.506 91.9926C117.988 91.9926 117.57 91.4284 117.57 90.7365C117.57 90.0446 117.988 89.4804 118.506 89.4804H139.485C140.003 89.4804 140.421 90.0446 140.421 90.7365C140.421 91.4284 140.003 91.9926 139.485 91.9926H118.506ZM118.506 84.4081C117.988 84.4081 117.57 83.8439 117.57 83.152C117.57 82.4601 117.988 81.8959 118.506 81.8959H138.507C139.025 81.8959 139.443 82.4601 139.443 83.152C139.443 83.8439 139.025 84.4081 138.507 84.4081H118.506ZM118.506 76.8236C117.988 76.8236 117.57 76.2594 117.57 75.5675C117.57 74.8756 117.988 74.3114 118.506 74.3114H131.905C132.423 74.3114 132.841 74.8756 132.841 75.5675C132.841 76.2594 132.423 76.8236 131.905 76.8236H118.506ZM143.701 63.5122H86.2336C85.8844 63.5122 85.5723 63.6559 85.3396 63.8848C85.1121 64.1136 84.9693 64.433 84.9693 64.7843V100.21C84.9693 100.556 85.1121 100.876 85.3396 101.11C85.5671 101.339 85.8844 101.482 86.2336 101.482H143.706C144.05 101.482 144.368 101.339 144.6 101.105C144.828 100.876 144.971 100.556 144.971 100.205V64.7896C144.971 64.4596 144.849 64.1615 144.648 63.938L144.6 63.8901C144.368 63.6612 144.05 63.5122 143.701 63.5122Z" fill="#2743FD"/>
</g>
<defs>
<clipPath id="clip0_61_1113">
<rect width="65" height="43" fill="white" transform="translate(82.4673 61)"/>
</clipPath>
</defs>
</svg>
