<svg width="204" height="143" viewBox="0 0 204 143" fill="none" xmlns="http://www.w3.org/2000/svg">
<g opacity="0.2">
<path opacity="0.4" d="M193.255 65.8099C193.804 66.3452 194.681 66.3452 195.231 65.8099C195.621 65.4301 196.194 65.3076 196.705 65.4953C197.423 65.7592 198.224 65.3973 198.508 64.687C198.71 64.1815 199.186 63.8319 199.729 63.7941C200.492 63.7409 201.076 63.0833 201.049 62.3185C201.03 61.7732 201.322 61.2587 201.803 61.0015C202.48 60.6397 202.749 59.8033 202.413 59.1126C202.175 58.6208 202.235 58.0324 202.571 57.6007C203.043 56.9933 202.952 56.1203 202.364 55.6243C201.947 55.2721 201.767 54.7084 201.899 54.1783C202.083 53.4347 201.648 52.6708 200.912 52.4588C200.388 52.308 199.996 51.8658 199.902 51.3289C199.771 50.5755 199.063 50.0537 198.306 50.1615C197.767 50.2382 197.23 49.9969 196.928 49.5445C196.502 48.9078 195.645 48.7224 194.997 49.1308C194.536 49.4211 193.95 49.4211 193.489 49.1308C192.841 48.7224 191.983 48.9078 191.558 49.5445C191.255 49.9969 190.719 50.2382 190.18 50.1615C189.423 50.0537 188.715 50.5755 188.584 51.3289C188.49 51.8658 188.097 52.308 187.574 52.4588C186.837 52.6708 186.402 53.4347 186.587 54.1783C186.719 54.7084 186.539 55.2721 186.122 55.6243C185.534 56.1203 185.443 56.9933 185.915 57.6007C186.25 58.0324 186.311 58.6208 186.072 59.1126C185.737 59.8033 186.005 60.6397 186.682 61.0015C187.164 61.2587 187.456 61.7732 187.437 62.3185C187.41 63.0833 187.993 63.7409 188.757 63.7941C189.3 63.8319 189.775 64.1815 189.978 64.687C190.262 65.3973 191.062 65.7592 191.781 65.4953C192.291 65.3076 192.865 65.4301 193.255 65.8099Z" fill="#2743FD"/>
<path opacity="0.4" d="M8.76899 32.6346C9.31857 33.1699 10.1955 33.1699 10.745 32.6346C11.1349 32.2548 11.7085 32.1323 12.2193 32.32C12.9374 32.5839 13.7378 32.222 14.0221 31.5117C14.2245 31.0062 14.7 30.6566 15.2432 30.6188C16.0066 30.5656 16.5902 29.908 16.5631 29.1432C16.5437 28.598 16.8363 28.0834 17.3175 27.8262C17.9946 27.4644 18.2627 26.628 17.9276 25.9373C17.6889 25.4455 17.7494 24.8571 18.0849 24.4254C18.5569 23.818 18.4663 22.945 17.8783 22.449C17.4608 22.0968 17.281 21.5331 17.4127 21.003C17.5974 20.2594 17.1626 19.4955 16.4262 19.2835C15.9024 19.1327 15.5097 18.6906 15.4161 18.1536C15.2848 17.4002 14.5773 16.8784 13.8202 16.9862C13.2813 17.0629 12.7446 16.8216 12.4421 16.3692C12.0164 15.7325 11.1587 15.5471 10.5108 15.9555C10.0502 16.2459 9.46381 16.2459 9.00321 15.9555C8.35532 15.5471 7.49764 15.7325 7.07194 16.3692C6.7694 16.8216 6.23272 17.0629 5.69386 16.9862C4.93669 16.8784 4.22925 17.4002 4.09794 18.1536C4.00436 18.6906 3.61158 19.1327 3.08781 19.2835C2.35147 19.4955 1.91662 20.2594 2.10136 21.003C2.23305 21.5331 2.05321 22.0968 1.63571 22.449C1.04774 22.945 0.957125 23.818 1.42915 24.4254C1.76462 24.8571 1.82515 25.4455 1.58645 25.9373C1.25128 26.628 1.51945 27.4644 2.1965 27.8262C2.67772 28.0834 2.97032 28.598 2.95098 29.1432C2.92385 29.908 3.50743 30.5656 4.27081 30.6188C4.81407 30.6566 5.28955 31.0062 5.49193 31.5117C5.77623 32.222 6.5766 32.5839 7.29469 32.32C7.80556 32.1323 8.37911 32.2548 8.76899 32.6346Z" fill="#2743FD"/>
<path d="M93.5358 27.8244C97.108 24.345 102.808 24.345 106.38 27.8244C108.914 30.2928 112.642 31.0891 115.963 29.869C120.631 28.154 125.833 30.5065 127.681 35.123C128.996 38.4092 132.087 40.6815 135.618 40.9274C140.58 41.2728 144.373 45.5474 144.197 50.5182C144.071 54.0626 145.973 57.4072 149.101 59.0788C153.502 61.4307 155.245 66.8675 153.067 71.3566C151.515 74.5537 151.908 78.3782 154.089 81.1842C157.157 85.1324 156.568 90.8067 152.746 94.0309C150.033 96.3203 148.864 99.9841 149.72 103.43C150.921 108.263 148.094 113.229 143.308 114.607C139.903 115.587 137.35 118.461 136.742 121.951C135.888 126.848 131.29 130.239 126.368 129.539C122.866 129.04 119.377 130.609 117.411 133.55C114.644 137.688 109.069 138.893 104.858 136.238C101.864 134.351 98.0521 134.351 95.0582 136.238C90.847 138.893 85.272 137.688 82.505 133.55C80.5384 130.609 77.05 129.04 73.5474 129.539C68.6258 130.239 64.0275 126.848 63.174 121.951C62.5657 118.461 60.0126 115.587 56.6081 114.607C51.8219 113.229 48.9954 108.263 50.1962 103.43C51.0522 99.9841 49.8832 96.3203 47.1695 94.0309C43.3476 90.8067 42.7587 85.1324 45.8268 81.1842C48.0074 78.3782 48.4009 74.5537 46.8493 71.3566C44.6707 66.8675 46.4138 61.4307 50.8146 59.0788C53.9425 57.4072 55.8444 54.0626 55.7187 50.5182C55.5424 45.5474 59.3356 41.2728 64.2976 40.9274C67.8288 40.6815 70.9195 38.4092 72.2349 35.123C74.0829 30.5065 79.2853 28.154 83.9528 29.869C87.2735 31.0891 91.0016 30.2928 93.5358 27.8244Z" fill="#2743FD"/>
<path opacity="0.4" d="M123.249 9.22942C123.524 9.49707 123.962 9.49707 124.237 9.22942C124.432 9.03955 124.719 8.97829 124.974 9.07215C125.333 9.20407 125.733 9.02311 125.876 8.66799C125.977 8.41521 126.214 8.24041 126.486 8.2215C126.868 8.19493 127.16 7.86612 127.146 7.48374C127.136 7.2111 127.283 6.95382 127.523 6.82524C127.862 6.64432 127.996 6.22611 127.828 5.88079C127.709 5.63486 127.739 5.34067 127.907 5.12483C128.143 4.82112 128.098 4.38463 127.804 4.13661C127.595 3.96051 127.505 3.67868 127.571 3.41363C127.663 3.04181 127.446 2.65986 127.078 2.55387C126.816 2.47847 126.619 2.2574 126.573 1.98893C126.507 1.61221 126.153 1.35134 125.775 1.40523C125.505 1.44358 125.237 1.32294 125.086 1.0967C124.873 0.778375 124.444 0.685673 124.12 0.889877C123.89 1.03505 123.596 1.03505 123.366 0.889877C123.042 0.685673 122.613 0.778375 122.4 1.0967C122.249 1.32294 121.981 1.44358 121.711 1.40523C121.333 1.35134 120.979 1.61221 120.913 1.98893C120.867 2.2574 120.67 2.47847 120.408 2.55387C120.04 2.65986 119.823 3.04181 119.915 3.41363C119.981 3.67868 119.891 3.96051 119.682 4.13661C119.388 4.38463 119.343 4.82112 119.579 5.12483C119.747 5.34067 119.777 5.63486 119.658 5.88079C119.49 6.22611 119.624 6.64432 119.963 6.82524C120.203 6.95382 120.35 7.2111 120.34 7.48374C120.326 7.86612 120.618 8.19493 121 8.2215C121.272 8.24041 121.509 8.41521 121.61 8.66799C121.753 9.02311 122.153 9.20407 122.512 9.07215C122.767 8.97829 123.054 9.03955 123.249 9.22942Z" fill="#2743FD"/>
<path opacity="0.4" d="M29.4059 135.021C29.8377 135.442 30.5267 135.442 30.9585 135.021C31.2649 134.723 31.7155 134.626 32.1169 134.774C32.6811 134.981 33.31 134.697 33.5334 134.139C33.6924 133.742 34.066 133.467 34.4928 133.437C35.0926 133.395 35.5511 132.879 35.5298 132.278C35.5146 131.849 35.7445 131.445 36.1226 131.243C36.6546 130.959 36.8653 130.302 36.602 129.759C36.4144 129.372 36.462 128.91 36.7256 128.571C37.0964 128.094 37.0252 127.408 36.5633 127.018C36.2352 126.741 36.0939 126.298 36.1974 125.882C36.3425 125.298 36.0009 124.697 35.4223 124.531C35.0108 124.412 34.7022 124.065 34.6286 123.643C34.5255 123.051 33.9696 122.641 33.3747 122.726C32.9513 122.786 32.5296 122.597 32.2919 122.241C31.9575 121.741 31.2836 121.595 30.7745 121.916C30.4126 122.144 29.9519 122.144 29.59 121.916C29.0809 121.595 28.407 121.741 28.0725 122.241C27.8348 122.597 27.4131 122.786 26.9898 122.726C26.3948 122.641 25.839 123.051 25.7358 123.643C25.6623 124.065 25.3537 124.412 24.9421 124.531C24.3636 124.697 24.0219 125.298 24.1671 125.882C24.2705 126.298 24.1292 126.741 23.8012 127.018C23.3392 127.408 23.268 128.094 23.6389 128.571C23.9025 128.91 23.9501 129.372 23.7625 129.759C23.4992 130.302 23.7099 130.959 24.2418 131.243C24.6199 131.445 24.8498 131.849 24.8346 132.278C24.8133 132.879 25.2718 133.395 25.8716 133.437C26.2985 133.467 26.6721 133.742 26.8311 134.139C27.0545 134.697 27.6833 134.981 28.2475 134.774C28.6489 134.626 29.0996 134.723 29.4059 135.021Z" fill="#2743FD"/>
<path opacity="0.4" d="M23.0996 75.5803C23.3744 75.8479 23.8128 75.8479 24.0876 75.5803C24.2825 75.3904 24.5693 75.3291 24.8248 75.423C25.1838 75.5549 25.584 75.3739 25.7261 75.0188C25.8273 74.766 26.0651 74.5912 26.3367 74.5723C26.7184 74.5458 27.0102 74.2169 26.9966 73.8346C26.9869 73.5619 27.1332 73.3047 27.3739 73.1761C27.7124 72.9952 27.8465 72.5769 27.6789 72.2316C27.5595 71.9857 27.5898 71.6915 27.7575 71.4757C27.9935 71.1719 27.9482 70.7355 27.6542 70.4874C27.4455 70.3113 27.3556 70.0295 27.4214 69.7645C27.5138 69.3926 27.2964 69.0107 26.9282 68.9047C26.6663 68.8293 26.4699 68.6082 26.4231 68.3398C26.3575 67.963 26.0038 67.7022 25.6252 67.7561C25.3557 67.7944 25.0874 67.6738 24.9361 67.4475C24.7233 67.1292 24.2944 67.0365 23.9705 67.2407C23.7402 67.3859 23.447 67.3859 23.2167 67.2407C22.8927 67.0365 22.4639 67.1292 22.2511 67.4475C22.0998 67.6738 21.8314 67.7944 21.562 67.7561C21.1834 67.7022 20.8297 67.963 20.7641 68.3398C20.7173 68.6082 20.5209 68.8293 20.259 68.9047C19.8908 69.0107 19.6734 69.3926 19.7658 69.7645C19.8316 70.0295 19.7417 70.3113 19.5329 70.4874C19.239 70.7355 19.1937 71.1719 19.4297 71.4757C19.5974 71.6915 19.6277 71.9857 19.5083 72.2316C19.3407 72.5769 19.4748 72.9952 19.8133 73.1761C20.0539 73.3047 20.2002 73.5619 20.1906 73.8346C20.177 74.2169 20.4688 74.5458 20.8505 74.5723C21.1221 74.5912 21.3599 74.766 21.4611 75.0188C21.6032 75.3739 22.0034 75.5549 22.3624 75.423C22.6179 75.3291 22.9046 75.3904 23.0996 75.5803Z" fill="#2743FD"/>
<path opacity="0.4" d="M168.053 115.391C168.327 115.659 168.766 115.659 169.041 115.391C169.236 115.201 169.522 115.14 169.778 115.234C170.137 115.366 170.537 115.185 170.679 114.829C170.78 114.577 171.018 114.402 171.29 114.383C171.672 114.356 171.963 114.028 171.95 113.645C171.94 113.373 172.086 113.115 172.327 112.987C172.666 112.806 172.8 112.388 172.632 112.042C172.513 111.796 172.543 111.502 172.711 111.286C172.947 110.983 172.901 110.546 172.607 110.298C172.399 110.122 172.309 109.84 172.375 109.575C172.467 109.203 172.249 108.821 171.881 108.715C171.619 108.64 171.423 108.419 171.376 108.15C171.311 107.774 170.957 107.513 170.578 107.567C170.309 107.605 170.041 107.484 169.889 107.258C169.676 106.94 169.248 106.847 168.924 107.051C168.693 107.196 168.4 107.196 168.17 107.051C167.846 106.847 167.417 106.94 167.204 107.258C167.053 107.484 166.785 107.605 166.515 107.567C166.137 107.513 165.783 107.774 165.717 108.15C165.67 108.419 165.474 108.64 165.212 108.715C164.844 108.821 164.627 109.203 164.719 109.575C164.785 109.84 164.695 110.122 164.486 110.298C164.192 110.546 164.147 110.983 164.383 111.286C164.551 111.502 164.581 111.796 164.461 112.042C164.294 112.388 164.428 112.806 164.766 112.987C165.007 113.115 165.153 113.373 165.144 113.645C165.13 114.028 165.422 114.356 165.804 114.383C166.075 114.402 166.313 114.577 166.414 114.829C166.556 115.185 166.957 115.366 167.316 115.234C167.571 115.14 167.858 115.201 168.053 115.391Z" fill="#2743FD"/>
</g>
<path d="M72.5537 79.9737L88.1018 98.5893C88.4578 99.0155 89.0924 99.0706 89.5156 98.7121L127.968 66.1429" stroke="#2743FD" stroke-width="4"/>
</svg>
