<svg width="20" height="18" viewBox="0 0 20 18" fill="none" xmlns="http://www.w3.org/2000/svg">
<path d="M5.19434 14.7373C5.19414 14.3233 4.85843 13.9873 4.44434 13.9873C2.40407 13.9872 0.750211 12.3339 0.75 10.2939V4.44434L0.754883 4.25391C0.853884 2.30219 2.46775 0.750057 4.44434 0.75H15.5557C17.596 0.750058 19.25 2.40422 19.25 4.44434V10.2939C19.2498 12.3339 17.5959 13.9872 15.5557 13.9873H8.44434C8.31769 13.9873 8.19387 14.0198 8.08398 14.0801L7.97949 14.1494L5.19434 16.3477V14.7373Z" stroke="black" stroke-width="1.5" stroke-linecap="round" stroke-linejoin="round"/>
<path d="M6.66667 7.77786C6.66667 8.39153 6.1692 8.88897 5.55555 8.88897C4.94191 8.88897 4.44444 8.39153 4.44444 7.77786C4.44444 7.16419 4.94191 6.66675 5.55555 6.66675C6.1692 6.66675 6.66667 7.16419 6.66667 7.77786Z" fill="black"/>
<path d="M11.1111 7.77786C11.1111 8.39153 10.6137 8.88897 10 8.88897C9.38633 8.88897 8.88889 8.39153 8.88889 7.77786C8.88889 7.16419 9.38633 6.66675 10 6.66675C10.6137 6.66675 11.1111 7.16419 11.1111 7.77786Z" fill="black"/>
<path d="M15.5556 7.77786C15.5556 8.39153 15.0581 8.88897 14.4444 8.88897C13.8308 8.88897 13.3333 8.39153 13.3333 7.77786C13.3333 7.16419 13.8308 6.66675 14.4444 6.66675C15.0581 6.66675 15.5556 7.16419 15.5556 7.77786Z" fill="black"/>
</svg>
