<svg width="20" height="16" viewBox="0 0 20 16" fill="none" xmlns="http://www.w3.org/2000/svg">
<path d="M0 15.1052C0 15.3396 0.0957254 15.5645 0.266118 15.7302C0.43651 15.896 0.667612 15.9891 0.908583 15.9891H8.17725C8.41822 15.9891 8.64932 15.896 8.81972 15.7302C8.99011 15.5645 9.08583 15.3396 9.08583 15.1052C9.08583 14.8707 8.99011 14.6459 8.81972 14.4801C8.64932 14.3143 8.41822 14.2212 8.17725 14.2212H1.88168C2.10215 12.7492 2.85944 11.4035 4.01526 10.4298C5.17108 9.45601 6.64832 8.9192 8.17725 8.91735C9.24709 8.92638 10.2865 8.57096 11.1152 7.9127C11.944 7.25444 12.5099 6.33481 12.715 5.31321C12.92 4.2916 12.7512 3.2324 12.2378 2.31918C11.7244 1.40595 10.8988 0.696257 9.90402 0.31309C8.90927 -0.0700777 7.80808 -0.102569 6.79129 0.221247C5.7745 0.545063 4.9062 1.20478 4.33687 2.08606C3.76754 2.96733 3.53307 4.01463 3.67408 5.04645C3.8151 6.07827 4.32272 7.02956 5.10896 7.73548C3.6009 8.33068 2.30941 9.34969 1.39941 10.6624C0.489404 11.975 0.00219546 13.5218 0 15.1052ZM8.17725 1.84557C8.71635 1.84557 9.24335 2.0011 9.6916 2.2925C10.1398 2.58389 10.4892 2.99807 10.6955 3.48264C10.9018 3.96722 10.9558 4.50043 10.8506 5.01485C10.7455 5.52927 10.4859 6.0018 10.1046 6.37268C9.72344 6.74356 9.23776 6.99613 8.70902 7.09845C8.18027 7.20078 7.63222 7.14826 7.13415 6.94754C6.63609 6.74682 6.21038 6.40692 5.91087 5.97082C5.61136 5.53471 5.4515 5.02199 5.4515 4.49749C5.4515 3.79416 5.73868 3.11963 6.24985 2.6223C6.76103 2.12497 7.45434 1.84557 8.17725 1.84557ZM19.7226 10.4263L17.6392 12.4532L19.7226 14.4802C19.8094 14.5617 19.8786 14.6593 19.9262 14.7671C19.9739 14.875 19.9989 14.991 20 15.1083C20.001 15.2257 19.978 15.3421 19.9323 15.4508C19.8867 15.5594 19.8192 15.6581 19.7339 15.7411C19.6486 15.8241 19.5471 15.8897 19.4355 15.9342C19.3238 15.9786 19.2042 16.001 19.0835 16C18.9629 15.9989 18.8437 15.9746 18.7328 15.9282C18.622 15.8819 18.5217 15.8146 18.4379 15.7301L16.3545 13.7032L14.2711 15.7301C14.0998 15.8912 13.8702 15.9803 13.632 15.9782C13.3938 15.9762 13.1659 15.8833 12.9975 15.7194C12.829 15.5555 12.7334 15.3338 12.7314 15.102C12.7293 14.8702 12.8209 14.6469 12.9864 14.4802L15.0698 12.4532L12.9864 10.4263C12.8209 10.2596 12.7293 10.0363 12.7314 9.80451C12.7334 9.57273 12.829 9.35102 12.9975 9.18713C13.1659 9.02323 13.3938 8.93026 13.632 8.92825C13.8702 8.92624 14.0998 9.01533 14.2711 9.17636L16.3545 11.2033L18.4379 9.17636C18.6092 9.01533 18.8388 8.92624 19.077 8.92825C19.3152 8.93026 19.5431 9.02323 19.7116 9.18713C19.88 9.35102 19.9756 9.57273 19.9776 9.80451C19.9797 10.0363 19.8881 10.2596 19.7226 10.4263Z" fill="black"/>
</svg>
