<svg width="18" height="20" viewBox="0 0 18 20" fill="none" xmlns="http://www.w3.org/2000/svg">
<path d="M10.0094 1.1126C10.0096 0.498369 9.51195 0.000244757 8.8977 8.21593e-08C8.28346 -0.000233471 7.78532 0.497502 7.7851 1.11172L7.78154 10.0128C7.78132 10.6271 8.27912 11.1252 8.89336 11.1254C9.5075 11.1256 10.0056 10.628 10.0059 10.0137L10.0094 1.1126Z" fill="black"/>
<path d="M0 11.1026C0 8.64577 0.995837 6.42145 2.60587 4.81136L4.17871 6.38419C2.97118 7.59175 2.22432 9.26001 2.22432 11.1026C2.22432 14.788 5.21189 17.7756 8.89726 17.7756C12.5826 17.7756 15.5702 14.788 15.5702 11.1026C15.5702 9.2599 14.8233 7.59169 13.6157 6.38412L15.1885 4.81128C16.7987 6.42137 17.7945 8.64565 17.7945 11.1026C17.7945 16.0165 13.8111 19.9999 8.89726 19.9999C3.98344 19.9999 0 16.0165 0 11.1026Z" fill="black"/>
</svg>
