<svg width="24" height="24" viewBox="0 0 24 24" fill="none" xmlns="http://www.w3.org/2000/svg">
<g clip-path="url(#clip0_55_776)">
<path d="M20.4963 4.27889C20.2611 4.12417 19.9921 4.03057 19.713 4.00632C19.4338 3.98206 19.1531 4.02789 18.8955 4.13978L10.454 7.52017C10.2541 7.60287 10.0404 7.64539 9.82463 7.64537H4.4204C3.96683 7.64537 3.53183 7.82857 3.2111 8.15468C2.89038 8.48078 2.7102 8.92307 2.7102 9.38425V9.52336H1V13.6967H2.7102V13.8775C2.72092 14.3314 2.90582 14.7631 3.22539 15.0802C3.54496 15.3973 3.97385 15.5748 4.4204 15.5747L6.47264 19.9984C6.6116 20.2963 6.83038 20.5483 7.10385 20.7255C7.37732 20.9026 7.6944 20.9978 8.01866 21H8.8806C9.33179 20.9963 9.76328 20.8115 10.0811 20.4858C10.3988 20.1601 10.5771 19.7199 10.5771 19.2611V15.7416L18.8955 19.122C19.1001 19.2048 19.3183 19.2473 19.5386 19.2472C19.8802 19.2416 20.2129 19.1353 20.4963 18.9412C20.7213 18.7867 20.9069 18.5799 21.0378 18.338C21.1686 18.0961 21.2409 17.826 21.2488 17.5501V5.71173C21.2475 5.42866 21.1783 5.15018 21.0472 4.90048C20.916 4.65078 20.7269 4.43741 20.4963 4.27889ZM8.86692 9.38425V13.8775H4.4204V9.38425H8.86692ZM8.86692 19.2611H8.00497L6.32214 15.5747H8.86692V19.2611ZM11.0833 14.0862C10.9209 14.0018 10.7515 13.932 10.5771 13.8775V9.28688C10.7498 9.25064 10.9192 9.19945 11.0833 9.13385L19.5386 5.71173V17.5083L11.0833 14.0862ZM21.2898 9.87114V13.3489C21.7434 13.3489 22.1784 13.1657 22.4991 12.8396C22.8198 12.5135 23 12.0712 23 11.61C23 11.1488 22.8198 10.7066 22.4991 10.3804C22.1784 10.0543 21.7434 9.87114 21.2898 9.87114Z" fill="black"/>
</g>
<defs>
<clipPath id="clip0_55_776">
<rect width="24" height="24" fill="white"/>
</clipPath>
</defs>
</svg>
